<?xml version="1.0" encoding="UTF-8"?>
<svg id="Layer_1" xmlns="http://www.w3.org/2000/svg" version="1.1" viewBox="0 0 310 310">
  <!-- Generator: Adobe Illustrator 30.1.0, SVG Export Plug-In . SVG Version: 2.1.1 Build 136)  -->
  <defs>
    <style>
      .st0 {
        fill: #ff9c00;
      }

      .st1 {
        fill: #fff;
      }

      .st2 {
        fill: #0c45b5;
      }

      .st3 {
        fill: #333;
      }
    </style>
  </defs>
  <rect class="st2" x="-.5" y="-.5" width="310" height="310"/>
  <g>
    <path class="st0" d="M287.54,208.87l-36.24-31.86,33.88-11.24s-54.45-48.58-54.83-49.05c19.37-43.78,4.03-78.7-49.81-28.83-8.82-1.95-18.21-2.93-27.96-2.93-15.87,0-30.97,3.5-44.32,9.85-29.4-22.53-83.41-35.03-42.16,39.51l.47-.38c-.07.13-.14.26-.21.39l-.02-.19-43.6,49.46,32.86,5.93-33.12,38.69s86.29,22.8,141.9,17.55c61.01-5.75,123.16-36.9,123.16-36.9Z"/>
    <path class="st1" d="M164.36,245.78c11.7-1.1,23.43-3.14,34.77-5.71,6.05-9.3,9.17-20.5,8.23-32.28-2.32-29.03-28.46-50.63-58.38-48.24s-52.3,27.86-49.98,56.9c.84,10.57,4.86,20.15,11.05,27.95,18.78,2.03,37.88,2.93,54.31,1.38Z"/>
    <polygon class="st3" points="164.58 213.02 150.58 196.64 140.27 207.79 132.57 200.67 146.89 185.18 154.73 185.33 172.56 206.21 164.58 213.02"/>
    <circle class="st3" cx="110.86" cy="154.47" r="10.75"/>
    <path class="st3" d="M163.32,178.08c0,7.39-5.99,8.13-13.38,8.13s-13.38-.74-13.38-8.13,5.99-13.38,13.38-13.38,13.38,5.99,13.38,13.38Z"/>
    <polygon class="st3" points="200.38 157 169.71 154.76 167.63 144.89 199.37 128.03 204.3 137.3 188.62 145.62 201.14 146.54 200.38 157"/>
    <polygon class="st3" points="114.7 116.73 178.77 113.03 178.46 105.64 152.09 108.75 151.39 102.63 167.04 101.72 166.1 95.4 150.73 96.85 150.03 90.72 170.89 89.52 170.21 85.19 148.9 84.99 138.42 85.6 118.06 89.36 117.64 92.6 138.61 91.38 139.32 97.58 126.38 99.59 123.92 104.22 139.97 103.29 140.68 109.46 118.23 111.87 114.7 116.73"/>
    <polygon class="st3" points="120 189.07 56.71 171.1 54.23 187.28 120 189.07"/>
    <polygon class="st3" points="119.79 201.19 58.62 191.95 57.96 203.16 119.79 201.19"/>
    <polygon class="st3" points="180.32 183.22 239.4 154.27 244.72 169.75 180.32 183.22"/>
    <polygon class="st3" points="182.69 195.11 241.23 175.13 243.88 186.04 182.69 195.11"/>
  </g>
</svg>