<?xml version="1.0" encoding="UTF-8"?>
<svg id="Layer_1" xmlns="http://www.w3.org/2000/svg" version="1.1" viewBox="0 0 512 512">
  <!-- Generator: Adobe Illustrator 30.1.0, SVG Export Plug-In . SVG Version: 2.1.1 Build 136)  -->
  <defs>
    <style>
      .st0 {
        fill: #ff9c00;
      }

      .st1 {
        fill: #fff;
      }

      .st2 {
        fill: #0c45b5;
      }

      .st3 {
        fill: #333;
      }
    </style>
  </defs>
  <rect class="st2" width="512" height="512"/>
  <g>
    <path class="st0" d="M474.89,345.8l-59.85-52.62,55.96-18.56s-89.93-80.24-90.56-81.01c31.99-72.31,6.66-129.98-82.27-47.62-14.57-3.22-30.08-4.84-46.18-4.84-26.21,0-51.15,5.78-73.2,16.27-48.56-37.21-137.76-57.86-69.63,65.26l.78-.63c-.12.21-.23.43-.35.64l-.03-.31-72.01,81.69,54.27,9.79-54.7,63.9s142.52,37.66,234.36,28.99c100.76-9.5,203.41-60.94,203.41-60.94Z"/>
    <path class="st1" d="M271.44,406.76c19.32-1.82,38.7-5.19,57.43-9.43,9.99-15.36,15.15-33.86,13.59-53.31-3.83-47.95-47-83.62-96.42-79.67-49.42,3.95-86.38,46.01-82.55,93.98,1.39,17.46,8.03,33.28,18.25,46.16,31.02,3.35,62.56,4.84,89.7,2.28Z"/>
    <polygon class="st3" points="271.81 352.65 248.68 325.6 231.66 344.01 218.94 332.25 242.59 306.67 255.54 306.92 284.99 341.4 271.81 352.65"/>
    <circle class="st3" cx="183.08" cy="255.95" r="17.75"/>
    <path class="st3" d="M269.72,294.95c0,12.21-9.89,13.43-22.1,13.43s-22.1-1.22-22.1-13.43,9.89-22.1,22.1-22.1,22.1,9.89,22.1,22.1Z"/>
    <polygon class="st3" points="330.93 260.13 280.28 256.43 276.84 240.13 329.27 212.28 337.41 227.59 311.51 241.33 332.19 242.85 330.93 260.13"/>
    <polygon class="st3" points="189.42 193.62 295.24 187.51 294.73 175.3 251.18 180.44 250.02 170.33 275.87 168.83 274.32 158.39 248.93 160.78 247.77 150.66 282.23 148.68 281.1 141.53 245.91 141.2 228.6 142.2 194.97 148.41 194.28 153.77 228.91 151.75 230.09 161.99 208.71 165.31 204.65 172.96 231.16 171.42 232.33 181.61 195.25 185.59 189.42 193.62"/>
    <polygon class="st3" points="198.18 313.1 93.65 283.42 89.55 310.14 198.18 313.1"/>
    <polygon class="st3" points="197.83 333.11 96.8 317.85 95.71 336.37 197.83 333.11"/>
    <polygon class="st3" points="297.8 303.43 395.38 255.62 404.17 281.19 297.8 303.43"/>
    <polygon class="st3" points="301.72 323.07 398.4 290.07 402.78 308.09 301.72 323.07"/>
  </g>
</svg>