<?xml version="1.0" encoding="utf-8"?>
<!-- Generator: Adobe Illustrator 25.3.1, SVG Export Plug-In . SVG Version: 6.00 Build 0)  -->
<svg version="1.1" id="Layer_1" xmlns="http://www.w3.org/2000/svg" xmlns:xlink="http://www.w3.org/1999/xlink" x="0px" y="0px"
	 viewBox="0 0 310 310" style="enable-background:new 0 0 310 310;" xml:space="preserve">
<style type="text/css">
	.st0{fill:#CCCCCC;}
	.st1{fill:#808080;}
</style>
<g>
	<rect x="-0.33" y="-0.24" class="st0" width="310" height="310"/>
</g>
<g>
	<g>
		<path class="st1" d="M289.16,214.01l-34.21-35.09l35.18-8.73c0,0-51.35-53.45-51.7-53.95c23.04-42.83,10.23-79.39-48.19-33.09
			c-8.78-2.66-18.21-4.39-28.08-5.15c-16.07-1.24-31.64,1.13-45.66,6.51C88.48,59.4,34.76,42.52,70.71,121.23l0.51-0.35
			c-0.08,0.13-0.16,0.25-0.24,0.38l-0.01-0.2l-48.01,46.68l32.82,8.57l-36.56,36.6c0,0,85.61,29.82,142.33,28.85
			C223.8,240.7,289.16,214.01,289.16,214.01z"/>
	</g>
</g>
<path class="st1" d="M237.6,309.76H71.75v-30.23c0-45.8,37.13-82.92,82.92-82.92h0c45.8,0,82.92,37.13,82.92,82.92V309.76z"/>
</svg>
