<?xml version="1.0" encoding="utf-8"?>
<!-- Generator: Adobe Illustrator 25.3.1, SVG Export Plug-In . SVG Version: 6.00 Build 0)  -->
<svg version="1.1" id="Layer_1" xmlns="http://www.w3.org/2000/svg" xmlns:xlink="http://www.w3.org/1999/xlink" x="0px" y="0px"
	 viewBox="0 0 310 310" style="enable-background:new 0 0 310 310;" xml:space="preserve">
<style type="text/css">
	.st0{fill:#FF9C00;}
	.st1{fill:#FFFFFF;}
	.st2{fill:#333333;}
</style>
<g>
	<g>
		<path class="st0" d="M287.54,208.87l-36.24-31.86l33.88-11.24c0,0-54.45-48.58-54.83-49.05c19.37-43.78,4.03-78.7-49.81-28.83
			c-8.82-1.95-18.21-2.93-27.96-2.93c-15.87,0-30.97,3.5-44.32,9.85c-29.4-22.53-83.41-35.03-42.16,39.51l0.47-0.38
			c-0.07,0.13-0.14,0.26-0.21,0.39l-0.02-0.19l-43.6,49.46l32.86,5.93l-33.12,38.69c0,0,86.29,22.8,141.9,17.55
			C225.39,240.02,287.54,208.87,287.54,208.87z"/>
	</g>
	<path class="st1" d="M164.36,245.78c11.7-1.1,23.43-3.14,34.77-5.71c6.05-9.3,9.17-20.5,8.23-32.28
		c-2.32-29.03-28.46-50.63-58.38-48.24c-29.92,2.39-52.3,27.86-49.98,56.9c0.84,10.57,4.86,20.15,11.05,27.95
		C128.83,246.43,147.93,247.33,164.36,245.78z"/>
	<polygon class="st2" points="164.58,213.02 150.58,196.64 140.27,207.79 132.57,200.67 146.89,185.18 154.73,185.33 172.56,206.21 
			"/>
	<g>
		<circle class="st2" cx="110.86" cy="154.47" r="10.75"/>
	</g>
	<g>
		<path class="st2" d="M163.32,178.08c0,7.39-5.99,8.13-13.38,8.13c-7.39,0-13.38-0.74-13.38-8.13c0-7.39,5.99-13.38,13.38-13.38
			C157.33,164.7,163.32,170.69,163.32,178.08z"/>
	</g>
	<polygon class="st2" points="200.38,157 169.71,154.76 167.63,144.89 199.37,128.03 204.3,137.3 188.62,145.62 201.14,146.54 	"/>
	<polygon class="st2" points="114.7,116.73 178.77,113.03 178.46,105.64 152.09,108.75 151.39,102.63 167.04,101.72 166.1,95.4 
		150.73,96.85 150.03,90.72 170.89,89.52 170.21,85.19 148.9,84.99 138.42,85.6 118.06,89.36 117.64,92.6 138.61,91.38 
		139.32,97.58 126.38,99.59 123.92,104.22 139.97,103.29 140.68,109.46 118.23,111.87 	"/>
	<g>
		<polygon class="st2" points="120,189.07 56.71,171.1 54.23,187.28 		"/>
	</g>
	<g>
		<polygon class="st2" points="119.79,201.19 58.62,191.95 57.96,203.16 		"/>
	</g>
	<g>
		<polygon class="st2" points="180.32,183.22 239.4,154.27 244.72,169.75 		"/>
	</g>
	<g>
		<polygon class="st2" points="182.69,195.11 241.23,175.13 243.88,186.04 		"/>
	</g>
</g>
</svg>
